<svg width="128" height="128" viewBox="0 0 128 128" fill="none" xmlns="http://www.w3.org/2000/svg">
<g clip-path="url(#clip0_1_12)">
<rect width="128" height="128" rx="10" fill="white"/>
<path fill-rule="evenodd" clip-rule="evenodd" d="M128 0H0V73.0004C12.8211 67.3205 28.314 64 45 64C48.0028 64 50.9669 64.1075 53.8838 64.317L69.0831 25.2168C71.3079 19.4936 77.0904 15.8968 83.2148 16.3401C87.0489 16.6176 90.6391 18.499 93.0194 21.5176C96.5681 26.0178 96.9356 32.253 93.9402 37.139L75.1336 67.8151C104.381 75.5507 125 94.2102 125 116C125 120.13 124.259 124.148 122.859 128H128V0ZM112.325 128C114.067 124.028 115 119.835 115 115.5C115 96.5153 97.1121 80.2462 71.6941 73.4254L61.7285 89.6806C60.6175 91.4928 58.8622 92.8179 56.8149 93.3899L56.583 93.4546C52.346 94.6384 47.9323 92.2554 46.5975 88.0635C46.0309 86.284 46.0909 84.3641 46.7676 82.6235L51.5971 70.1994C49.4254 70.0675 47.2248 70 45 70C27.8648 70 12.1677 74.0019 0 80.6463V128H112.325ZM42 115C46.9706 115 51 110.971 51 106C51 101.029 46.9706 97 42 97C37.0294 97 33 101.029 33 106C33 110.971 37.0294 115 42 115Z" fill="#4493BD"/>
</g>
<defs>
<clipPath id="clip0_1_12">
<rect width="128" height="128" rx="10" fill="white"/>
</clipPath>
</defs>
</svg>
